<svg width="10" height="11" viewBox="0 0 10 11" fill="none" xmlns="http://www.w3.org/2000/svg">
<path d="M1.8125 3.59375C1.8125 5.34688 3.24687 6.78125 5 6.78125C6.75313 6.78125 8.1875 5.34688 8.1875 3.59375C8.1875 1.84062 6.75313 0.40625 5 0.40625C3.24687 0.40625 1.8125 1.84062 1.8125 3.59375ZM7.4375 3.59375C7.4375 4.93437 6.34062 6.03125 5 6.03125C3.65937 6.03125 2.5625 4.93437 2.5625 3.59375C2.5625 2.25312 3.65937 1.15625 5 1.15625C6.34062 1.15625 7.4375 2.25312 7.4375 3.59375Z" fill="#797979"/>
<path d="M1.28755 10.1938C2.2813 9.2 3.5938 8.65625 5.00005 8.65625C6.4063 8.65625 7.7188 9.2 8.71255 10.1938L9.24692 9.65937C8.11255 8.53437 6.60317 7.90625 5.00005 7.90625C3.39692 7.90625 1.88755 8.53437 0.753174 9.65937L1.28755 10.1938Z" fill="#797979"/>
</svg>
