<?xml version="1.0" encoding="UTF-8" standalone="no"?>
<svg height="86.800003" version="1.1" viewBox="0 0 128 86.800003" width="128" xml:space="preserve" id="svg1"
     xmlns:inkscape="http://www.inkscape.org/namespaces/inkscape"
     xmlns:sodipodi="http://sodipodi.sourceforge.net/DTD/sodipodi-0.dtd" xmlns="http://www.w3.org/2000/svg">
    <sodipodi:namedview id="namedview1" pagecolor="#ffffff" bordercolor="#000000" borderopacity="0.25"
                        inkscape:showpageshadow="2" inkscape:pageopacity="0.0" inkscape:pagecheckerboard="true"
                        inkscape:deskcolor="#d1d1d1" showguides="true" inkscape:lockguides="false" labelstyle="default"
                        inkscape:clip-to-page="false" inkscape:zoom="4.9149717" inkscape:cx="61.343181"
                        inkscape:cy="39.471234" inkscape:window-width="1920" inkscape:window-height="1052"
                        inkscape:window-x="1680" inkscape:window-y="0" inkscape:window-maximized="1"
                        inkscape:current-layer="svg1"/>
    <path fill="#ffffff"
          d="M 63.94972,86.8 C 34.589157,86.8 11.161036,69.5 0,43.4 11.261586,17.3 34.689707,0 63.94972,0 93.209733,0 116.73841,17.3 128,43.4 116.73841,69.5 93.209733,86.8 63.94972,86.8 Z m 0,-10.4 c 23.227021,0 43.23646,-13.5 52.58759,-33 -9.35113,-19.5 -29.360569,-33 -52.58759,-33 -23.126471,0 -43.135896,13.5 -52.487034,33 9.250588,19.5 29.260013,33 52.487034,33 z m -24.33307,-33 c 0,-13.4 10.859387,-24.2 24.23252,-24.2 13.473683,0 24.33307,10.9 24.33307,24.2 0,13.4 -10.959937,24.2 -24.33307,24.2 -13.373133,0 -24.23252,-10.9 -24.23252,-24.2 z m 25.740768,-6.1 c 0,4.2 3.318146,7.6 7.641791,7.6 4.122545,0 7.54124,-3.4 7.54124,-7.6 0,-4.1 -3.318146,-7.5 -7.54124,-7.5 -4.223095,0 -7.641791,3.3 -7.641791,7.5 z"/>
</svg>